<svg id="Glyph" height="512" viewBox="0 0 128 128" width="512" xmlns="http://www.w3.org/2000/svg"><path d="m62.25 47.14a31.13 31.13 0 1 0 -37.25 30.51v8.73h-9.11a1 1 0 0 0 -1 1v10.23a1 1 0 0 0 1 1h9.11v8.71a1 1 0 0 0 1 1h10.24a1 1 0 0 0 1-1v-8.71h9.12a1 1 0 0 0 1-1v-10.23a1 1 0 0 0 -1-1h-9.12v-8.73a31 31 0 0 0 25.01-30.51zm-31.12-20.45a20.45 20.45 0 1 1 -20.45 20.45 20.47 20.47 0 0 1 20.45-20.45z"/><path d="m128 47.14a31.12 31.12 0 1 0 -37.24 30.51v11.35l-5.46-5.47a1 1 0 0 0 -1.42 0l-7.23 7.23a1 1 0 0 0 -.29.7 1 1 0 0 0 .29.72l19.52 19.52a1 1 0 0 0 1.42 0l19.52-19.52a1 1 0 0 0 0-1.42l-7.24-7.23a1 1 0 0 0 -1.41 0l-5.46 5.47v-11.35a31 31 0 0 0 25-30.51zm-31.12-20.45a20.45 20.45 0 1 1 -20.45 20.45 20.47 20.47 0 0 1 20.45-20.45z"/></svg>