<?xml version="1.0" encoding="iso-8859-1"?>
<!-- Generator: Adobe Illustrator 18.0.0, SVG Export Plug-In . SVG Version: 6.00 Build 0)  -->
<!DOCTYPE svg PUBLIC "-//W3C//DTD SVG 1.1//EN" "http://www.w3.org/Graphics/SVG/1.1/DTD/svg11.dtd">
<svg version="1.1" id="Capa_1" xmlns="http://www.w3.org/2000/svg" xmlns:xlink="http://www.w3.org/1999/xlink" x="0px" y="0px"
	 viewBox="0 0 493.508 493.508" style="enable-background:new 0 0 493.508 493.508;" xml:space="preserve">
<g>
	<path d="M246.753,0C152.987,0,76.998,76.01,76.998,169.776c0,71.476,98.671,236.177,145.555,310.407
		c5.254,8.299,14.403,13.324,24.217,13.324c9.818-0.02,18.948-5.041,24.186-13.34c46.899-74.246,145.555-238.916,145.555-310.392
		C416.51,76.01,340.521,0,246.753,0z M246.753,273.424c-53.028,0-96.017-42.983-96.017-96.018c0-53.029,42.988-96.017,96.017-96.017
		c53.029,0,96.017,42.987,96.017,96.017C342.77,230.441,299.783,273.424,246.753,273.424z"/>
</g>
<g>
</g>
<g>
</g>
<g>
</g>
<g>
</g>
<g>
</g>
<g>
</g>
<g>
</g>
<g>
</g>
<g>
</g>
<g>
</g>
<g>
</g>
<g>
</g>
<g>
</g>
<g>
</g>
<g>
</g>
</svg>
